<svg width="100px" height="45px" viewBox="0 0 100 45" stroke-width="0" fill-rule="evenodd">
    <path d="M63.572925,34.9139623 C59.0864288,34.9139622 55.0417301,32.1956716 53.3249625,28.0266902 C51.608195,23.8577087 52.5574682,19.0590985 55.7301147,15.8685588 C58.9027612,12.6780192 63.6739428,11.7239124 67.8187505,13.4511599 C71.9635583,15.1784074 74.6656912,19.2468356 74.6650842,23.7592453 C74.6568153,29.9169663 69.695285,34.9064788 63.572925,34.9139623 L63.572925,34.9139623 Z M63.572925,17.48 C60.1249089,17.48 57.3297397,20.2913139 57.3297397,23.7592453 C57.3297397,27.2271767 60.1249089,30.0384906 63.572925,30.0384906 C67.020941,30.0384906 69.8161103,27.2271767 69.8161103,23.7592453 C69.8128009,20.2926935 67.0195693,17.4833284 63.572925,17.48 Z"></path>
    <path d="M87.8343032,34.9139623 C83.347807,34.9139622 79.3031083,32.1956716 77.5863408,28.0266902 C75.8695733,23.8577087 76.8188464,19.0590985 79.9914929,15.8685588 C83.1641394,12.6780192 87.935321,11.7239124 92.0801288,13.4511599 C96.2249366,15.1784074 98.9270695,19.2468356 98.9264625,23.7592453 C98.9181935,29.9169663 93.9566632,34.9064788 87.8343032,34.9139623 L87.8343032,34.9139623 Z M87.8343032,17.48 C84.3862872,17.48 81.5911179,20.2913139 81.5911179,23.7592453 C81.5911179,27.2271767 84.3862872,30.0384906 87.8343032,30.0384906 C91.2823192,30.0384906 94.0774885,27.2271767 94.0774885,23.7592453 C94.0741792,20.2926935 91.2809476,17.4833284 87.8343032,17.48 Z"></path>
    <path d="M12.2422358,12.6030189 C10.0141109,12.6001728 7.83742012,13.2764236 5.99905054,14.5426415 L5.99905054,5.59018868 C6.02096054,4.70453563 5.56370775,3.87656269 4.80455658,3.42725235 C4.0454054,2.97794201 3.1037217,2.97794201 2.34457053,3.42725235 C1.58541935,3.87656269 1.12816656,4.70453563 1.15007657,5.59018868 L1.15007657,23.7592453 C1.15007657,29.920659 6.11620543,34.9154717 12.2422358,34.9154717 C18.3682662,34.9154717 23.3343951,29.920659 23.3343951,23.7592453 C23.3343951,17.5978316 18.3682662,12.6030189 12.2422358,12.6030189 Z M12.2422358,30.0369811 C9.71696654,30.0369811 7.44037974,28.5069287 6.47414128,26.1603502 C5.50790282,23.8137718 6.04231837,21.112838 7.82816805,19.3171052 C9.61401773,17.5213724 12.2995691,16.9845195 14.6324395,17.956903 C16.9653098,18.9292865 18.4860282,21.2193904 18.4854211,23.7592453 C18.4812848,27.2252076 15.688295,30.0336542 12.2422358,30.0369811 Z"></path>
    <path d="M47.7923737,34.9139623 C47.1492988,34.9143628 46.5324263,34.6577074 46.0775628,34.2004998 C45.6226994,33.7432923 45.3671362,33.1230158 45.3671363,32.4762264 L45.3671363,21.6596226 C45.3998685,20.3365106 46.4757024,19.2810512 47.7916233,19.2810512 C49.1075442,19.2810512 50.183378,20.3365106 50.2161103,21.6596226 L50.2161103,32.4762264 C50.2161103,33.8225507 49.1309664,34.9139623 47.7923737,34.9139623 Z"></path>
    <ellipse cx="47.7923737" cy="15.0407547" rx="2.46275651" ry="2.47698113" class="red-dot"></ellipse>
    <ellipse cx="63.572925" cy="23.7577358" rx="2.46275651" ry="2.47698113"></ellipse>
    <path d="M63.572925,42.9803774 C60.8742232,42.9862496 58.2053859,42.4124495 55.7449311,41.2973585 C54.5554702,40.7264619 54.0370326,39.3046615 54.577485,38.0956709 C55.1179374,36.8866802 56.5194314,36.3330857 57.7334456,36.8490566 C61.4488674,38.5214969 65.6969825,38.5214969 69.4124043,36.8490566 C70.6264185,36.3330857 72.0279125,36.8866802 72.568365,38.0956709 C73.1088174,39.3046615 72.5903797,40.7264619 71.4009188,41.2973585 C68.9404641,42.4124495 66.2716267,42.9862496 63.572925,42.9803774 L63.572925,42.9803774 Z"></path>
    <path d="M33.6461562,34.9245283 C31.1473813,34.9245283 28.4895253,34.4354717 26.3404288,33.5826415 C25.4975772,33.2546259 24.8509282,32.5558385 24.5860337,31.6867925 C24.281269,30.6631772 24.5603049,29.5539234 25.3124043,28.7992453 L25.3304135,28.7811321 L36.5531394,17.7381132 C35.5950636,17.567455 34.623631,17.4840981 33.6506585,17.4890566 C31.6371342,17.484673 29.6458397,17.9122998 27.8096784,18.7433962 C26.6598738,19.2623088 25.3065114,18.8090197 24.6955896,17.7003774 C24.373393,17.0919906 24.318,16.3760378 24.5427431,15.7248442 C24.7674862,15.0736507 25.2520104,14.5461955 25.8796937,14.269434 C28.3242641,13.1699142 30.9727866,12.6040196 33.6506585,12.6090566 C37.7732619,12.6090566 40.3845942,13.6822642 41.5732006,14.3207547 C42.3815419,14.7549552 42.9375937,15.5486218 43.0722017,16.460316 C43.2068096,17.3720103 42.9040592,18.2939445 42.256049,18.9456604 L42.2380398,18.9637736 L31.1788974,29.8467925 C31.9966131,29.975882 32.8229352,30.0419861 33.6506585,30.0445283 C35.7242678,30.0496921 37.7764417,29.6225989 39.6777335,28.7901887 C40.8267443,28.276267 42.1757389,28.7302761 42.7858193,29.8362264 C43.4866769,31.1056604 42.8893721,32.7041509 41.5686983,33.2883019 C39.0661806,34.370617 36.3702298,34.9274062 33.6461562,34.9245283 Z"></path>
</svg>