<svg width="24" height="18" viewBox="0 0 24 18" fill="none" xmlns="http://www.w3.org/2000/svg">
<mask id="mask0_14287_58861" style="mask-type:alpha" maskUnits="userSpaceOnUse" x="0" y="0" width="24" height="18">
<path d="M21.7143 0H2.28571C1.02335 0 0 1.07452 0 2.4V15.6C0 16.9255 1.02335 18 2.28571 18H21.7143C22.9767 18 24 16.9255 24 15.6V2.4C24 1.07452 22.9767 0 21.7143 0Z" fill="white"/>
</mask>
<g mask="url(#mask0_14287_58861)">
<path d="M21.7143 0H2.28571C1.02335 0 0 1.07452 0 2.4V15.6C0 16.9255 1.02335 18 2.28571 18H21.7143C22.9767 18 24 16.9255 24 15.6V2.4C24 1.07452 22.9767 0 21.7143 0Z" fill="white"/>
<path fill-rule="evenodd" clip-rule="evenodd" d="M11.9997 12C13.5769 12 14.8569 10.656 14.8569 9C14.8569 7.344 13.5769 6 11.9997 6C10.4226 6 9.14258 7.344 9.14258 9C9.14258 10.656 10.4226 12 11.9997 12ZM11.9997 10.8C12.946 10.8 13.714 9.9936 13.714 9C13.714 8.0064 12.946 7.2 11.9997 7.2C11.0534 7.2 10.2854 8.0064 10.2854 9C10.2854 9.9936 11.0534 10.8 11.9997 10.8Z" fill="#00008A"/>
<path d="M11.9992 9.5999C12.3148 9.5999 12.5706 9.33127 12.5706 8.9999C12.5706 8.66853 12.3148 8.3999 11.9992 8.3999C11.6836 8.3999 11.4277 8.66853 11.4277 8.9999C11.4277 9.33127 11.6836 9.5999 11.9992 9.5999Z" fill="#00008A"/>
<path fill-rule="evenodd" clip-rule="evenodd" d="M0 12H24V18H0V12Z" fill="#018900"/>
<path fill-rule="evenodd" clip-rule="evenodd" d="M0 0H24V6H0V0Z" fill="#FF991E"/>
<path d="M21.7151 0.600098H2.28655C1.33978 0.600098 0.572266 1.40599 0.572266 2.4001V15.6001C0.572266 16.5942 1.33978 17.4001 2.28655 17.4001H21.7151C22.6619 17.4001 23.4294 16.5942 23.4294 15.6001V2.4001C23.4294 1.40599 22.6619 0.600098 21.7151 0.600098Z" stroke="white"/>
</g>
</svg>
