<svg width="24" height="20" viewBox="0 0 24 20" fill="none" xmlns="http://www.w3.org/2000/svg">
<mask id="mask0_14287_58870" style="mask-type:alpha" maskUnits="userSpaceOnUse" x="0" y="0" width="24" height="20">
<path d="M21.7143 0.794434H2.28571C1.02335 0.794434 0 1.88737 0 3.23558V16.6619C0 18.0101 1.02335 19.103 2.28571 19.103H21.7143C22.9767 19.103 24 18.0101 24 16.6619V3.23558C24 1.88737 22.9767 0.794434 21.7143 0.794434Z" fill="white"/>
</mask>
<g mask="url(#mask0_14287_58870)">
<path d="M21.7143 0.794434H2.28571C1.02335 0.794434 0 1.88737 0 3.23558V16.6619C0 18.0101 1.02335 19.103 2.28571 19.103H21.7143C22.9767 19.103 24 18.0101 24 16.6619V3.23558C24 1.88737 22.9767 0.794434 21.7143 0.794434Z" fill="white"/>
<path fill-rule="evenodd" clip-rule="evenodd" d="M8 0.794434H24V2.20279H8V0.794434ZM8 3.61114H24V5.01949H8V3.61114ZM8 6.42784H24V7.83619H8V6.42784ZM8 9.24455H24V10.6529H8V9.24455ZM0 12.0613H24V13.4696H0V12.0613ZM0 14.878H24V16.2863H0V14.878ZM0 17.6947H24V19.103H0V17.6947Z" fill="#C1012B"/>
<path d="M24 20.5114H0V21.9197H24V20.5114Z" fill="#C1012B"/>
<path fill-rule="evenodd" clip-rule="evenodd" d="M0 0.794434H10.9091V11.093H0V0.794434Z" fill="#00256A"/>
<path d="M1.60543 2.93066L1.91907 3.95575L1.0918 3.32163H2.11907L1.28725 3.95575L1.60543 2.93066Z" fill="white"/>
<path d="M1.60543 4.91406L1.91907 5.93915L1.0918 5.30503H2.11907L1.28725 5.93915L1.60543 4.91406Z" fill="white"/>
<path d="M1.60543 6.89746L1.91907 7.92255L1.0918 7.28843H2.11907L1.28725 7.92255L1.60543 6.89746Z" fill="white"/>
<path d="M1.60543 8.88086L1.91907 9.90595L1.0918 9.27182H2.11907L1.28725 9.90595L1.60543 8.88086Z" fill="white"/>
<path d="M2.71286 1.93848L3.03104 2.96357L2.19922 2.32944H3.23104L2.39467 2.96357L2.71286 1.93848Z" fill="white"/>
<path d="M2.71286 3.92236L3.03104 4.94745L2.19922 4.31333H3.23104L2.39467 4.94745L2.71286 3.92236Z" fill="white"/>
<path d="M2.71286 5.90576L3.03104 6.93085L2.19922 6.29673H3.23104L2.39467 6.93085L2.71286 5.90576Z" fill="white"/>
<path d="M2.71286 7.88916L3.03104 8.91425L2.19922 8.28012H3.23104L2.39467 8.91425L2.71286 7.88916Z" fill="white"/>
<path d="M2.71286 9.87256L3.03104 10.8976L2.19922 10.2635H3.23104L2.39467 10.8976L2.71286 9.87256Z" fill="white"/>
<path d="M3.82809 2.93066L4.14627 3.95575L3.31445 3.32163H4.34173L3.50991 3.95575L3.82809 2.93066Z" fill="white"/>
<path d="M3.82809 4.91406L4.14627 5.93915L3.31445 5.30503H4.34173L3.50991 5.93915L3.82809 4.91406Z" fill="white"/>
<path d="M3.82809 6.89746L4.14627 7.92255L3.31445 7.28843H4.34173L3.50991 7.92255L3.82809 6.89746Z" fill="white"/>
<path d="M3.82809 8.88086L4.14627 9.90595L3.31445 9.27182H4.34173L3.50991 9.90595L3.82809 8.88086Z" fill="white"/>
<path d="M4.94137 1.93848L5.25501 2.96357L4.42773 2.32944H5.45501L4.62319 2.96357L4.94137 1.93848Z" fill="white"/>
<path d="M4.94137 3.92236L5.25501 4.94745L4.42773 4.31333H5.45501L4.62319 4.94745L4.94137 3.92236Z" fill="white"/>
<path d="M4.94137 5.90576L5.25501 6.93085L4.42773 6.29673H5.45501L4.62319 6.93085L4.94137 5.90576Z" fill="white"/>
<path d="M4.94137 7.88916L5.25501 8.91425L4.42773 8.28012H5.45501L4.62319 8.91425L4.94137 7.88916Z" fill="white"/>
<path d="M4.94137 9.87256L5.25501 10.8976L4.42773 10.2635H5.45501L4.62319 10.8976L4.94137 9.87256Z" fill="white"/>
<path d="M6.05075 2.93066L6.36893 3.95575L5.53711 3.32163H6.56438L5.73256 3.95575L6.05075 2.93066Z" fill="white"/>
<path d="M6.05075 4.91406L6.36893 5.93915L5.53711 5.30503H6.56438L5.73256 5.93915L6.05075 4.91406Z" fill="white"/>
<path d="M6.05075 6.89746L6.36893 7.92255L5.53711 7.28843H6.56438L5.73256 7.92255L6.05075 6.89746Z" fill="white"/>
<path d="M6.05075 8.88086L6.36893 9.90595L5.53711 9.27182H6.56438L5.73256 9.90595L6.05075 8.88086Z" fill="white"/>
<path d="M7.16403 1.93848L7.48221 2.96357L6.65039 2.32944H7.67766L6.84585 2.96357L7.16403 1.93848Z" fill="white"/>
<path d="M7.16403 3.92236L7.48221 4.94745L6.65039 4.31333H7.67766L6.84585 4.94745L7.16403 3.92236Z" fill="white"/>
<path d="M7.16403 5.90576L7.48221 6.93085L6.65039 6.29673H7.67766L6.84585 6.93085L7.16403 5.90576Z" fill="white"/>
<path d="M7.16403 7.88916L7.48221 8.91425L6.65039 8.28012H7.67766L6.84585 8.91425L7.16403 7.88916Z" fill="white"/>
<path d="M7.16403 9.87256L7.48221 10.8976L6.65039 10.2635H7.67766L6.84585 10.8976L7.16403 9.87256Z" fill="white"/>
<path d="M8.2734 2.93066L8.59158 3.95575L7.75977 3.32163H8.78704L7.95977 3.95575L8.2734 2.93066Z" fill="white"/>
<path d="M8.2734 4.91406L8.59158 5.93915L7.75977 5.30503H8.78704L7.95977 5.93915L8.2734 4.91406Z" fill="white"/>
<path d="M8.2734 6.89746L8.59158 7.92255L7.75977 7.28843H8.78704L7.95977 7.92255L8.2734 6.89746Z" fill="white"/>
<path d="M8.2734 8.88086L8.59158 9.90595L7.75977 9.27182H8.78704L7.95977 9.90595L8.2734 8.88086Z" fill="white"/>
<path d="M9.38668 1.93848L9.70486 2.96357L8.87305 2.32944H9.90032L9.0685 2.96357L9.38668 1.93848Z" fill="white"/>
<path d="M9.38668 3.92236L9.70486 4.94745L8.87305 4.31333H9.90032L9.0685 4.94745L9.38668 3.92236Z" fill="white"/>
<path d="M9.38668 5.90576L9.70486 6.93085L8.87305 6.29673H9.90032L9.0685 6.93085L9.38668 5.90576Z" fill="white"/>
<path d="M9.38668 7.88916L9.70486 8.91425L8.87305 8.28012H9.90032L9.0685 8.91425L9.38668 7.88916Z" fill="white"/>
<path d="M9.38668 9.87256L9.70486 10.8976L8.87305 10.2635H9.90032L9.0685 10.8976L9.38668 9.87256Z" fill="white"/>
<path d="M1.8 1.29443H22.2C22.8784 1.29443 23.5 1.90749 23.5 2.75607V17.1414C23.5 17.99 22.8784 18.603 22.2 18.603H1.8C1.12163 18.603 0.5 17.99 0.5 17.1414V2.75607C0.5 1.90749 1.12163 1.29443 1.8 1.29443Z" stroke="white"/>
</g>
</svg>
