<svg width="16" height="16" viewBox="0 0 16 16" fill="none" xmlns="http://www.w3.org/2000/svg">
<path d="M16 0H0V16H16V0Z" fill="#F7DF1E"/>
<path d="M10.746 12.5001C11.0683 13.0263 11.4876 13.4131 12.2292 13.4131C12.8522 13.4131 13.2502 13.1018 13.2502 12.6715C13.2502 12.156 12.8413 11.9734 12.1556 11.6734L11.7797 11.5122C10.6947 11.0499 9.97398 10.4709 9.97398 9.24677C9.97398 8.11915 10.8332 7.26074 12.1759 7.26074C13.1318 7.26074 13.8191 7.59344 14.3143 8.46455L13.1435 9.2163C12.8857 8.75408 12.6076 8.57198 12.1759 8.57198C11.7355 8.57198 11.4564 8.85135 11.4564 9.2163C11.4564 9.66735 11.7358 9.84995 12.3808 10.1293L12.7567 10.2903C14.0342 10.8381 14.7554 11.3966 14.7554 12.6522C14.7554 14.0059 13.6921 14.7475 12.264 14.7475C10.8677 14.7475 9.9656 14.0821 9.52421 13.2099L10.746 12.5001ZM5.43481 12.6304C5.671 13.0494 5.88586 13.4037 6.40243 13.4037C6.8964 13.4037 7.20802 13.2105 7.20802 12.459V7.34658H8.71151V12.4793C8.71151 14.0361 7.79875 14.7447 6.46643 14.7447C5.26262 14.7447 4.56548 14.1217 4.21094 13.3713L5.43481 12.6304Z" fill="black"/>
</svg>
