<svg width="16" height="10" viewBox="0 0 16 10" fill="none" xmlns="http://www.w3.org/2000/svg">
<path fill-rule="evenodd" clip-rule="evenodd" d="M8 9.05417C12.4183 9.05417 16 7.23898 16 4.99998C16 2.76099 12.4183 0.945801 8 0.945801C3.5818 0.945801 0 2.76099 0 4.99998C0 7.23898 3.5818 9.05417 8 9.05417Z" fill="#6E81B6"/>
<path fill-rule="evenodd" clip-rule="evenodd" d="M9.62007 6.31027L10.0169 4.26795C10.1065 3.80699 10.032 3.46319 9.79565 3.24591C9.56667 3.0357 9.17798 2.93345 8.60742 2.93345H7.9202L8.11677 1.92158C8.12045 1.90274 8.11992 1.88333 8.11522 1.86472C8.11051 1.84612 8.10174 1.82879 8.08954 1.81398C8.07735 1.79916 8.06202 1.78723 8.04467 1.77904C8.02732 1.77085 8.00836 1.7666 7.98917 1.7666H7.04066C6.97836 1.7666 6.92487 1.81081 6.91297 1.87195L6.49148 4.04013C6.45318 3.79616 6.35876 3.58643 6.20766 3.41337C5.92944 3.09491 5.48938 2.93345 4.89957 2.93345H3.06117C2.99887 2.93345 2.94537 2.97766 2.93348 3.0387L2.08054 7.42749C2.07309 7.46571 2.08306 7.50498 2.10782 7.53497C2.13249 7.56506 2.16925 7.58237 2.20823 7.58237H3.16419C3.22649 7.58237 3.27999 7.53816 3.29189 7.47693L3.49823 6.41543H4.20983C4.58324 6.41543 4.89705 6.37499 5.14199 6.29528C5.39245 6.21382 5.62297 6.07568 5.82612 5.8855C5.99029 5.73468 6.12591 5.56578 6.23029 5.38362L6.05994 6.26045C6.05249 6.29866 6.06245 6.33813 6.08722 6.36793C6.11188 6.39801 6.14874 6.41533 6.18763 6.41533H7.13614C7.19844 6.41533 7.25194 6.37112 7.26384 6.31008L7.73195 3.90102H8.3828C8.66015 3.90102 8.74141 3.95626 8.76356 3.97996C8.78358 4.00163 8.82518 4.07795 8.77846 4.31854L8.40118 6.26035C8.39756 6.27918 8.39815 6.29858 8.40289 6.31715C8.40763 6.33573 8.41641 6.35303 8.42861 6.36782C8.4408 6.38261 8.45611 6.39453 8.47344 6.40273C8.49078 6.41092 8.5097 6.41519 8.52887 6.41523H9.49248C9.52263 6.41529 9.55186 6.40485 9.57514 6.38569C9.59843 6.36654 9.61432 6.33987 9.62007 6.31027ZM5.22258 4.62278C5.16299 4.92896 5.05077 5.14729 4.88883 5.27179C4.72438 5.39862 4.46135 5.46285 4.107 5.46285H3.68329L3.98966 3.88622H4.53748C4.93991 3.88622 5.10204 3.97222 5.16715 4.04429C5.2574 4.14432 5.27656 4.34447 5.22258 4.62278ZM13.6154 3.41337C13.3373 3.09491 12.8973 2.93345 12.3074 2.93345H10.469C10.4066 2.93345 10.3532 2.97766 10.3413 3.0387L9.48851 7.42749C9.48096 7.46571 9.49093 7.50498 9.51569 7.53497C9.54046 7.56496 9.57731 7.58237 9.61601 7.58237H10.5721C10.6345 7.58237 10.6879 7.53816 10.6998 7.47693L10.9061 6.41543H11.6178C11.9913 6.41543 12.3048 6.37499 12.5499 6.29528C12.8004 6.21382 13.0309 6.07568 13.234 5.8855C13.4035 5.72985 13.5429 5.55485 13.6485 5.36592C13.7542 5.17699 13.8299 4.9663 13.8741 4.73954C13.9827 4.1803 13.8958 3.73415 13.6154 3.41337ZM12.6847 4.62278C12.625 4.92896 12.5128 5.14729 12.3511 5.27179C12.1865 5.39862 11.9235 5.46285 11.5692 5.46285H11.1454L11.4517 3.88622H11.9996C12.4021 3.88622 12.5642 3.97222 12.6294 4.04429C12.7194 4.14432 12.7387 4.34447 12.6847 4.62278Z" fill="white"/>
<path fill-rule="evenodd" clip-rule="evenodd" d="M4.51294 3.75636C4.8761 3.75636 5.11823 3.8234 5.23925 3.95748C5.36017 4.09156 5.389 4.32179 5.32573 4.6479C5.25956 4.98754 5.13226 5.22996 4.94362 5.37526C4.75498 5.52056 4.46786 5.59312 4.08246 5.59312H3.50087L3.85783 3.75636H4.51294ZM2.18359 7.45251H3.13956L3.36641 6.28576H4.18529C4.54661 6.28576 4.84388 6.24774 5.07721 6.1718C5.31055 6.09586 5.52269 5.96865 5.71356 5.78998C5.87375 5.64284 6.00338 5.48032 6.10263 5.30271C6.20179 5.1251 6.27222 4.92921 6.31391 4.71493C6.4151 4.19468 6.33877 3.78945 6.08513 3.49923C5.83158 3.20893 5.42808 3.06382 4.87503 3.06382H3.03663L2.18359 7.45251ZM7.01603 1.89697H7.96455L7.73779 3.06382H8.58289C9.11437 3.06382 9.4813 3.15649 9.68309 3.34194C9.88489 3.52739 9.94535 3.82795 9.86467 4.24344L9.46785 6.28576H8.50425L8.88152 4.34385C8.92438 4.1229 8.90871 3.97228 8.83412 3.89189C8.75954 3.8116 8.60079 3.77136 8.35817 3.77136H7.60014L7.11151 6.28576H6.163L7.01603 1.89697ZM11.9751 3.75636C12.3383 3.75636 12.5803 3.8234 12.7014 3.95748C12.8223 4.09156 12.8511 4.32179 12.7878 4.6479C12.7218 4.98754 12.5945 5.22996 12.4058 5.37526C12.2172 5.52056 11.93 5.59312 11.5448 5.59312H10.9632L11.3201 3.75636H11.9751ZM9.64556 7.45251H10.6016L10.8284 6.28576H11.6473C12.0087 6.28576 12.3059 6.24774 12.5393 6.1718C12.7726 6.09586 12.9848 5.96865 13.1756 5.78998C13.3358 5.64284 13.4654 5.48032 13.5646 5.30271C13.6638 5.1251 13.7343 4.92921 13.7761 4.71493C13.8772 4.19468 13.8008 3.78945 13.5473 3.49923C13.2935 3.20893 12.8901 3.06382 12.3371 3.06382H10.4987L9.64556 7.45251Z" fill="black"/>
</svg>
